
<svg width="1440" height="800" viewBox="0 0 1440 800" fill="none" xmlns="http://www.w3.org/2000/svg">
  <path d="M0 499.5C159.5 445.5 277 587 417.5 533C558 479 586.5 303 728 303C869.5 303 908 441.5 1038.5 441.5C1169 441.5 1232.5 331 1440 331" stroke="rgba(255, 255, 255, 0.1)" stroke-width="2"/>
  <path d="M0 599.5C159.5 545.5 277 687 417.5 633C558 579 586.5 403 728 403C869.5 403 908 541.5 1038.5 541.5C1169 541.5 1232.5 431 1440 431" stroke="rgba(255, 255, 255, 0.07)" stroke-width="2"/>
  <path d="M0 399.5C159.5 345.5 277 487 417.5 433C558 379 586.5 203 728 203C869.5 203 908 341.5 1038.5 341.5C1169 341.5 1232.5 231 1440 231" stroke="rgba(255, 255, 255, 0.05)" stroke-width="2"/>
</svg>
